# xmcd
#
# Track frame offsets:
#    150
#    5845
#    24045
#    42650
#    69710
#    90975
#    105605
#    136160
#    188070
#    210830
#    225430
#    239775
#    254955
#    264410
#    291575
#    296205
#    308940
#    323185
#
# Disc length: 4476 seconds
#
# Revision: 2
# Processed by: cddbd v1.5.1PL2 Copyright (c) Steve Scherf et al.
# Submitted via: audiograbber 1.83.01
#
DISCID=0f117a12
DTITLE=Stevie Ray Vaughan - A Tale Untold 2 (Soul To Soul Sessions)
DYEAR=1985
DGENRE=
TTITLE0=Hey Motherfucker
TTITLE1=Hug you squeeze you (take 2)
TTITLE2=Say what! (take 6)
TTITLE3=Say what (take 11)
TTITLE4=Hangnails and boogers
TTITLE5=Hangnails and boogers
TTITLE6=Life whitout you (take 3)
TTITLE7=Jam
TTITLE8=The sky is crying
TTITLE9=Boot hill (take 1)
TTITLE10=Boot hill (take 2)
TTITLE11=Empty arms
TTITLE12=You don't wanna hear me sing that shit
TTITLE13=Life withou you (take 12)
TTITLE14=Bass theme a la Nosferatu
TTITLE15=Guitar licks
TTITLE16=Look at little sister (instr.)
TTITLE17=Testify
EXTD=good quality bootleg
EXTT0=
EXTT1=
EXTT2=
EXTT3=
EXTT4=
EXTT5=
EXTT6=
EXTT7=
EXTT8=
EXTT9=
EXTT10=
EXTT11=
EXTT12=
EXTT13=
EXTT14=
EXTT15=
EXTT16=
EXTT17=
PLAYORDER=
